<svg width="153" height="26" viewBox="0 0 153 26" fill="none" xmlns="http://www.w3.org/2000/svg">
<path d="M0.67745 5.67195H4.30738L7.8026 12.2732H7.95228L11.4475 5.67195H15.0774L9.48658 15.5813V21H6.26829V15.5813L0.67745 5.67195ZM17.9252 21H14.4525L19.744 5.67195H23.9202L29.2042 21H25.7315L21.892 9.17465H21.7722L17.9252 21ZM17.7082 14.9751H25.9111V17.5048H17.7082V14.9751ZM28.5868 5.67195H32.2167L35.7119 12.2732H35.8616L39.3568 5.67195H42.9867L37.3959 15.5813V21H34.1776V15.5813L28.5868 5.67195ZM48.5065 5.67195L48.2146 16.4046H45.4753L45.1759 5.67195H48.5065ZM46.845 21.1946C46.351 21.1946 45.9269 21.02 45.5726 20.6707C45.2183 20.3164 45.0437 19.8923 45.0487 19.3983C45.0437 18.9094 45.2183 18.4902 45.5726 18.141C45.9269 17.7917 46.351 17.6171 46.845 17.6171C47.319 17.6171 47.7356 17.7917 48.0948 18.141C48.4541 18.4902 48.6362 18.9094 48.6412 19.3983C48.6362 19.7277 48.5489 20.0295 48.3793 20.304C48.2146 20.5734 47.9975 20.7904 47.7281 20.9551C47.4587 21.1148 47.1643 21.1946 46.845 21.1946ZM59.7088 5.67195V21H56.468V5.67195H59.7088ZM68.43 9.50397V11.899H61.5069V9.50397H68.43ZM63.0786 6.74971H66.267V17.4674C66.267 17.7618 66.3119 17.9913 66.4017 18.1559C66.4915 18.3156 66.6162 18.4279 66.7759 18.4927C66.9406 18.5576 67.1302 18.59 67.3447 18.59C67.4944 18.59 67.6441 18.5776 67.7938 18.5526C67.9435 18.5227 68.0582 18.5002 68.1381 18.4852L68.6395 20.8578C68.4799 20.9077 68.2553 20.9651 67.9659 21.0299C67.6765 21.0998 67.3248 21.1422 66.9106 21.1572C66.1422 21.1871 65.4686 21.0848 64.8898 20.8503C64.316 20.6158 63.8695 20.2516 63.5501 19.7576C63.2308 19.2636 63.0736 18.6399 63.0786 17.8865V6.74971ZM73.6934 5.67195V7.28859C73.6934 7.74763 73.6035 8.21665 73.4239 8.69565C73.2493 9.16966 73.0148 9.61873 72.7204 10.0428C72.426 10.462 72.1042 10.8187 71.7549 11.1131L70.3478 10.2823C70.5973 9.88816 70.8169 9.45158 71.0065 8.97257C71.201 8.49357 71.2983 7.93723 71.2983 7.30355V5.67195H73.6934ZM83.9414 12.7821L81.0225 12.9618C80.9726 12.7123 80.8653 12.4877 80.7006 12.2882C80.536 12.0836 80.3189 11.9214 80.0495 11.8017C79.785 11.6769 79.4682 11.6146 79.099 11.6146C78.605 11.6146 78.1884 11.7193 77.8491 11.9289C77.5098 12.1335 77.3401 12.4079 77.3401 12.7522C77.3401 13.0266 77.4499 13.2586 77.6694 13.4482C77.889 13.6378 78.2657 13.79 78.7996 13.9048L80.8802 14.3239C81.9979 14.5534 82.8312 14.9227 83.38 15.4316C83.9289 15.9405 84.2033 16.6092 84.2033 17.4374C84.2033 18.1909 83.9813 18.852 83.5372 19.4208C83.0981 19.9896 82.4944 20.4337 81.726 20.753C80.9626 21.0674 80.0819 21.2245 79.084 21.2245C77.5622 21.2245 76.3497 20.9077 75.4466 20.274C74.5484 19.6353 74.022 18.7672 73.8674 17.6694L77.0033 17.5048C77.0981 17.9688 77.3277 18.3231 77.6919 18.5676C78.0561 18.8071 78.5227 18.9268 79.0915 18.9268C79.6503 18.9268 80.0994 18.8195 80.4387 18.605C80.7829 18.3855 80.9576 18.1035 80.9626 17.7593C80.9576 17.4699 80.8353 17.2329 80.5958 17.0482C80.3563 16.8586 79.9871 16.7139 79.4881 16.6141L77.4973 16.2175C76.3746 15.9929 75.5389 15.6037 74.99 15.0499C74.4462 14.4961 74.1742 13.79 74.1742 12.9318C74.1742 12.1934 74.3738 11.5572 74.773 11.0233C75.1771 10.4894 75.7435 10.0778 76.4719 9.78837C77.2054 9.49898 78.0636 9.35428 79.0466 9.35428C80.4985 9.35428 81.6412 9.66114 82.4744 10.2749C83.3127 10.8886 83.8017 11.7243 83.9414 12.7821ZM91.1488 21V5.67195H97.286C98.4137 5.67195 99.3542 5.83911 100.108 6.17341C100.861 6.50771 101.427 6.97175 101.807 7.56551C102.186 8.15428 102.375 8.83287 102.375 9.60126C102.375 10.2 102.256 10.7264 102.016 11.1805C101.777 11.6295 101.447 11.9988 101.028 12.2882C100.614 12.5726 100.14 12.7746 99.6062 12.8944V13.0441C100.19 13.069 100.736 13.2337 101.245 13.5381C101.759 13.8424 102.176 14.269 102.495 14.8179C102.815 15.3618 102.974 16.0104 102.974 16.7638C102.974 17.5771 102.772 18.3031 102.368 18.9418C101.969 19.5755 101.378 20.0769 100.594 20.4462C99.8108 20.8154 98.8453 21 97.6977 21H91.1488ZM94.3896 18.3505H97.0316C97.9347 18.3505 98.5933 18.1784 99.0075 17.8341C99.4216 17.4848 99.6287 17.0208 99.6287 16.442C99.6287 16.0179 99.5264 15.6437 99.3218 15.3193C99.1172 14.995 98.8253 14.7405 98.4461 14.5559C98.0719 14.3713 97.6253 14.279 97.1064 14.279H94.3896V18.3505ZM94.3896 12.0861H96.7921C97.2361 12.0861 97.6303 12.0087 97.9746 11.8541C98.3239 11.6944 98.5983 11.4699 98.7979 11.1805C99.0025 10.8911 99.1047 10.5443 99.1047 10.1401C99.1047 9.5863 98.9077 9.13973 98.5135 8.80043C98.1243 8.46114 97.5704 8.29149 96.8519 8.29149H94.3896V12.0861ZM119.169 13.336C119.169 15.0075 118.852 16.4295 118.218 17.6021C117.589 18.7746 116.731 19.6703 115.643 20.289C114.561 20.9027 113.343 21.2096 111.991 21.2096C110.629 21.2096 109.406 20.9002 108.324 20.2815C107.241 19.6628 106.385 18.7672 105.757 17.5946C105.128 16.422 104.813 15.0025 104.813 13.336C104.813 11.6645 105.128 10.2424 105.757 9.06987C106.385 7.89732 107.241 7.00418 108.324 6.39046C109.406 5.77175 110.629 5.46239 111.991 5.46239C113.343 5.46239 114.561 5.77175 115.643 6.39046C116.731 7.00418 117.589 7.89732 118.218 9.06987C118.852 10.2424 119.169 11.6645 119.169 13.336ZM115.883 13.336C115.883 12.2532 115.721 11.3401 115.396 10.5967C115.077 9.85324 114.626 9.28941 114.042 8.90522C113.458 8.52102 112.774 8.32892 111.991 8.32892C111.208 8.32892 110.524 8.52102 109.94 8.90522C109.357 9.28941 108.902 9.85324 108.578 10.5967C108.259 11.3401 108.099 12.2532 108.099 13.336C108.099 14.4187 108.259 15.3318 108.578 16.0753C108.902 16.8187 109.357 17.3825 109.94 17.7667C110.524 18.1509 111.208 18.343 111.991 18.343C112.774 18.343 113.458 18.1509 114.042 17.7667C114.626 17.3825 115.077 16.8187 115.396 16.0753C115.721 15.3318 115.883 14.4187 115.883 13.336ZM131.733 10.6266C131.628 10.2624 131.481 9.94056 131.291 9.66114C131.102 9.37673 130.87 9.13723 130.595 8.94264C130.326 8.74305 130.017 8.59087 129.667 8.48609C129.323 8.38131 128.941 8.32892 128.522 8.32892C127.739 8.32892 127.05 8.52351 126.456 8.9127C125.868 9.30189 125.409 9.86821 125.079 10.6117C124.75 11.3501 124.585 12.2532 124.585 13.321C124.585 14.3888 124.748 15.2969 125.072 16.0453C125.396 16.7938 125.855 17.3651 126.449 17.7593C127.043 18.1484 127.744 18.343 128.552 18.343C129.286 18.343 129.912 18.2133 130.431 17.9539C130.955 17.6894 131.354 17.3177 131.628 16.8387C131.908 16.3597 132.047 15.7934 132.047 15.1397L132.706 15.237H128.754V12.7971H135.168V14.7281C135.168 16.0753 134.884 17.2329 134.315 18.2008C133.746 19.1638 132.963 19.9073 131.965 20.4312C130.967 20.9501 129.824 21.2096 128.537 21.2096C127.1 21.2096 125.838 20.8927 124.75 20.259C123.662 19.6204 122.814 18.7148 122.205 17.5422C121.602 16.3647 121.3 14.9676 121.3 13.3509C121.3 12.1085 121.479 11.0008 121.839 10.0279C122.203 9.04991 122.712 8.22164 123.365 7.54305C124.019 6.86447 124.78 6.34805 125.648 5.99378C126.516 5.63952 127.457 5.46239 128.47 5.46239C129.338 5.46239 130.146 5.58963 130.895 5.8441C131.643 6.09358 132.307 6.44784 132.886 6.90688C133.469 7.36592 133.946 7.91228 134.315 8.54596C134.684 9.17465 134.921 9.86821 135.026 10.6266H131.733ZM151.688 13.336C151.688 15.0075 151.371 16.4295 150.738 17.6021C150.109 18.7746 149.251 19.6703 148.163 20.289C147.08 20.9027 145.863 21.2096 144.511 21.2096C143.149 21.2096 141.926 20.9002 140.843 20.2815C139.761 19.6628 138.905 18.7672 138.276 17.5946C137.648 16.422 137.333 15.0025 137.333 13.336C137.333 11.6645 137.648 10.2424 138.276 9.06987C138.905 7.89732 139.761 7.00418 140.843 6.39046C141.926 5.77175 143.149 5.46239 144.511 5.46239C145.863 5.46239 147.08 5.77175 148.163 6.39046C149.251 7.00418 150.109 7.89732 150.738 9.06987C151.371 10.2424 151.688 11.6645 151.688 13.336ZM148.403 13.336C148.403 12.2532 148.24 11.3401 147.916 10.5967C147.597 9.85324 147.145 9.28941 146.561 8.90522C145.978 8.52102 145.294 8.32892 144.511 8.32892C143.727 8.32892 143.044 8.52102 142.46 8.90522C141.876 9.28941 141.422 9.85324 141.098 10.5967C140.778 11.3401 140.619 12.2532 140.619 13.336C140.619 14.4187 140.778 15.3318 141.098 16.0753C141.422 16.8187 141.876 17.3825 142.46 17.7667C143.044 18.1509 143.727 18.343 144.511 18.343C145.294 18.343 145.978 18.1509 146.561 17.7667C147.145 17.3825 147.597 16.8187 147.916 16.0753C148.24 15.3318 148.403 14.4187 148.403 13.336Z" fill="#FF6B82"/>
</svg>
